<?xml version="1.0" encoding="UTF-8"?>
<svg width="20px" height="20px" viewBox="0 0 20 20" version="1.1" xmlns="http://www.w3.org/2000/svg" xmlns:xlink="http://www.w3.org/1999/xlink">
    <!-- Generator: Sketch 41 (35326) - http://www.bohemiancoding.com/sketch -->
    <title>palette</title>
    <desc>Created with Sketch.</desc>
    <defs></defs>
    <g id="新增便签对话框——画板" stroke="none" stroke-width="1" fill="none" fill-rule="evenodd">
        <g id="Desktop-HD" transform="translate(-545.000000, -641.000000)" fill="#757575">
            <g id="弹窗遮罩">
                <g id="palette" transform="translate(545.000000, 641.000000)">
                    <path d="M9.99174857,2.28571429e-05 C4.4408,2.28571429e-05 0,4.4408 0,9.99177143 C0,15.5427429 4.44077714,19.98352 9.99174857,19.98352 C10.8799086,19.98352 11.6570514,19.2063771 11.6570514,18.3182171 C11.6570514,17.8741714 11.5460114,17.5410743 11.2130057,17.2080229 C10.9909714,16.8749714 10.76896,16.5418971 10.76896,16.0978286 C10.76896,15.2096686 11.5461029,14.4325257 12.4342629,14.4325257 L14.4326171,14.4325257 C17.5411657,14.4325257 19.9835657,11.99008 19.9835657,8.88157714 C19.9835429,3.99670857 15.5427657,0 9.99179429,0 L9.99174857,2.28571429e-05 Z M3.88569143,9.99174857 C2.99753143,9.99174857 2.22038857,9.21460571 2.22038857,8.32644571 C2.22038857,7.43828571 2.99753143,6.66114286 3.88569143,6.66114286 C4.77385143,6.66114286 5.55099429,7.43828571 5.55099429,8.32644571 C5.55099429,9.21460571 4.77385143,9.99174857 3.88569143,9.99174857 Z M7.21627429,5.55099429 C6.32811429,5.55099429 5.55097143,4.77385143 5.55097143,3.88569143 C5.55097143,2.99753143 6.32811429,2.22038857 7.21627429,2.22038857 C8.10443429,2.22038857 8.88157714,2.99753143 8.88157714,3.88569143 C8.88157714,4.77385143 8.10443429,5.55099429 7.21627429,5.55099429 L7.21627429,5.55099429 Z M12.7672457,5.55099429 C11.8790857,5.55099429 11.1019429,4.77385143 11.1019429,3.88569143 C11.1019429,2.99753143 11.8790857,2.22038857 12.7672457,2.22038857 C13.6554057,2.22038857 14.4325486,2.99753143 14.4325486,3.88569143 C14.4325486,4.77385143 13.6554057,5.55099429 12.7672457,5.55099429 Z M16.0978286,9.99174857 C15.2096686,9.99174857 14.4325257,9.21460571 14.4325257,8.32644571 C14.4325257,7.43828571 15.2096686,6.66114286 16.0978286,6.66114286 C16.9859886,6.66114286 17.7631314,7.43828571 17.7631314,8.32644571 C17.7631314,9.21460571 16.9859886,9.99174857 16.0978286,9.99174857 Z" id="Shape"></path>
                </g>
            </g>
        </g>
    </g>
</svg>